<mxfile host="app.diagrams.net" modified="2021-11-21T11:18:59.842Z" agent="5.0 (Windows)" etag="y85BZE-GnwK8IbcBfMaN" version="15.7.4" type="github">
  <diagram id="kgpKYQtTHZ0yAKxKKP6v" name="Page-1">
    <mxGraphModel dx="1102" dy="600" grid="1" gridSize="10" guides="1" tooltips="1" connect="1" arrows="1" fold="1" page="1" pageScale="1" pageWidth="850" pageHeight="1100" math="0" shadow="0">
      <root>
        <mxCell id="0" />
        <mxCell id="1" parent="0" />
        <mxCell id="HjCsKCoFKWItSkrbP5ZN-6" value="user request, GET/POST/DELETE/PUT" style="edgeStyle=orthogonalEdgeStyle;rounded=0;orthogonalLoop=1;jettySize=auto;html=1;entryX=0.5;entryY=0;entryDx=0;entryDy=0;" edge="1" parent="1" source="HjCsKCoFKWItSkrbP5ZN-1" target="HjCsKCoFKWItSkrbP5ZN-5">
          <mxGeometry relative="1" as="geometry" />
        </mxCell>
        <mxCell id="HjCsKCoFKWItSkrbP5ZN-1" value="ServiceNow" style="rounded=0;whiteSpace=wrap;html=1;" vertex="1" parent="1">
          <mxGeometry x="190" y="140" width="120" height="60" as="geometry" />
        </mxCell>
        <mxCell id="HjCsKCoFKWItSkrbP5ZN-5" value="&lt;div&gt;webex meeting&lt;/div&gt;&lt;div&gt; XML api&lt;/div&gt;" style="shape=parallelogram;perimeter=parallelogramPerimeter;whiteSpace=wrap;html=1;fixedSize=1;" vertex="1" parent="1">
          <mxGeometry x="190" y="300" width="120" height="60" as="geometry" />
        </mxCell>
        <mxCell id="HjCsKCoFKWItSkrbP5ZN-8" value="webex" style="rounded=0;whiteSpace=wrap;html=1;" vertex="1" parent="1">
          <mxGeometry x="190" y="460" width="120" height="60" as="geometry" />
        </mxCell>
        <mxCell id="HjCsKCoFKWItSkrbP5ZN-11" style="edgeStyle=orthogonalEdgeStyle;rounded=0;orthogonalLoop=1;jettySize=auto;html=1;" edge="1" parent="1" source="HjCsKCoFKWItSkrbP5ZN-10" target="HjCsKCoFKWItSkrbP5ZN-5">
          <mxGeometry relative="1" as="geometry" />
        </mxCell>
        <mxCell id="HjCsKCoFKWItSkrbP5ZN-10" value="&lt;div&gt;webex&lt;/div&gt;&lt;div&gt;user cred:&lt;br&gt;&lt;/div&gt;" style="shape=cylinder3;whiteSpace=wrap;html=1;boundedLbl=1;backgroundOutline=1;size=15;" vertex="1" parent="1">
          <mxGeometry x="70" y="290" width="60" height="80" as="geometry" />
        </mxCell>
      </root>
    </mxGraphModel>
  </diagram>
</mxfile>
